{
	"nodes":[{
		"name":"Boxbase",
		"translation":[0.0,
		0.0,
		0.0],
		"rotation":[0.0,
		0.0,
		0.0,
		-1.0],
		"scale":[1.0,
		1.0,
		1.0],
		"children":[1,
		3,
		5,
		7]
	},
	{
		"name":"BoxBase",
		"translation":[0.0,
		0.0,
		0.0],
		"rotation":[0.0,
		0.0,
		0.0,
		-1.0],
		"scale":[1.0,
		1.0,
		1.0],
		"children":[2]
	},
	{
		"name":"BoxBase-default",
		"mesh":0,
		"translation":[0.0,
		0.0,
		0.0],
		"rotation":[0.0,
		0.0,
		0.0,
		-1.0],
		"scale":[1.0,
		1.0,
		1.0]
	},
	{
		"name":"RightFlap",
		"translation":[-43.917701721191409,
		0.0,
		26.506303787231447],
		"rotation":[0.0,
		0.0,
		0.0,
		-1.0],
		"scale":[1.0,
		1.0,
		1.0],
		"children":[4]
	},
	{
		"name":"RightFlap-default",
		"mesh":1,
		"translation":[0.0,
		0.0,
		0.0],
		"rotation":[0.0,
		0.0,
		0.0,
		-1.0],
		"scale":[1.0,
		1.0,
		1.0]
	},
	{
		"name":"LeftFlap",
		"translation":[43.4085693359375,
		0.0,
		23.685266494750978],
		"rotation":[0.0,
		0.0,
		0.0,
		-1.0],
		"scale":[1.0,
		1.0,
		1.0],
		"children":[6]
	},
	{
		"name":"LeftFlap-default",
		"mesh":2,
		"translation":[0.0,
		0.0,
		0.0],
		"rotation":[0.0,
		0.0,
		0.0,
		-1.0],
		"scale":[1.0,
		1.0,
		1.0]
	},
	{
		"name":"TopFlap",
		"translation":[0.0,
		0.0,
		0.0],
		"rotation":[0.0,
		0.0,
		0.0,
		-1.0],
		"scale":[1.0,
		1.0,
		1.0],
		"children":[8,
		10]
	},
	{
		"name":"TopFlap-default",
		"translation":[0.0,
		0.0,
		0.0],
		"rotation":[0.0,
		0.0,
		0.0,
		-1.0],
		"scale":[1.0,
		1.0,
		1.0],
		"children":[9]
	},
	{
		"name":"TopFlap-default",
		"mesh":3
	},
	{
		"name":"Joint.1",
		"translation":[0.0,
		42.31532669067383,
		4.03329610824585],
		"rotation":[-1.0789789146581442e-19,
		-0.9999984502792358,
		0.001762106316164136,
		-6.123224336758489e-17],
		"scale":[1.0,
		1.0,
		1.0],
		"children":[11]
	},
	{
		"name":"Joint.2",
		"translation":[-1.5662004123553817e-20,
		4.661548924644876e-14,
		-20.594074249267579],
		"rotation":[-1.133909109855041e-16,
		-0.7090944051742554,
		-0.7051135301589966,
		1.1403108260517114e-16],
		"scale":[1.0,
		1.0,
		1.0],
		"children":[12]
	},
	{
		"name":"Joint.3",
		"translation":[3.114191875339506e-23,
		3.552713678800501e-15,
		-68.87873077392578],
		"rotation":[-0.08709758520126343,
		-1.1586846167670762e-18,
		1.0130360762254168e-19,
		-0.9961997866630554],
		"scale":[1.0,
		1.0,
		1.0],
		"children":[13]
	},
	{
		"name":"Joint.4",
		"translation":[5.525277705654042e-22,
		-7.105427357601002e-15,
		-4.659284591674805],
		"rotation":[-8.321251673826247e-17,
		-4.479370290665327e-17,
		3.727396710199485e-33,
		-1.0],
		"scale":[1.0,
		1.0,
		1.0]
	}],
	"asset":{
		"version":"2.0",
		"generator":"Created using the official Cinema 4D glTF Exporter 1.000x284978"
	},
	"scenes":[{
		"nodes":[0]
	}],
	"meshes":[{
		"name":"BoxBase-default",
		"primitives":[{
			"attributes":{
				"POSITION":1,
				"NORMAL":2,
				"TEXCOORD_0":3
			},
			"indices":0,
			"material":0
		}]
	},
	{
		"name":"RightFlap-default",
		"primitives":[{
			"attributes":{
				"POSITION":5,
				"NORMAL":6,
				"TEXCOORD_0":7
			},
			"indices":4,
			"material":0
		}]
	},
	{
		"name":"LeftFlap-default",
		"primitives":[{
			"attributes":{
				"POSITION":9,
				"NORMAL":10,
				"TEXCOORD_0":11
			},
			"indices":8,
			"material":0
		}]
	},
	{
		"name":"TopFlap-default",
		"primitives":[{
			"attributes":{
				"POSITION":13,
				"NORMAL":14,
				"TEXCOORD_0":15
			},
			"indices":12,
			"material":0
		}]
	}],
	"accessors":[{
		"bufferView":0,
		"type":"SCALAR",
		"componentType":5123,
		"count":1530,
		"byteOffset":0,
		"min":[0],
		"max":[309]
	},
	{
		"bufferView":1,
		"type":"VEC3",
		"componentType":5126,
		"count":310,
		"byteOffset":0,
		"min":[-43.45760726928711,
		-44.81587219238281,
		3.5995535850524904],
		"max":[43.54239273071289,
		42.18412780761719,
		23.59955406188965]
	},
	{
		"bufferView":1,
		"type":"VEC3",
		"componentType":5126,
		"count":310,
		"byteOffset":12,
		"min":[-0.991312563419342,
		-0.9914063215255737,
		-1.0],
		"max":[0.991312563419342,
		0.9751250743865967,
		0.9953125715255737]
	},
	{
		"bufferView":1,
		"type":"VEC2",
		"componentType":5126,
		"count":310,
		"byteOffset":24,
		"min":[0.002813891042023897,
		0.6849051713943481],
		"max":[0.9575003981590271,
		0.9798307418823242]
	},
	{
		"bufferView":2,
		"type":"SCALAR",
		"componentType":5123,
		"count":612,
		"byteOffset":0,
		"min":[0],
		"max":[131]
	},
	{
		"bufferView":3,
		"type":"VEC3",
		"componentType":5126,
		"count":132,
		"byteOffset":0,
		"min":[0.46812790632247927,
		-44.415870666503909,
		-3.894110918045044],
		"max":[86.87301635742188,
		42.04383087158203,
		-2.5394110679626467]
	},
	{
		"bufferView":3,
		"type":"VEC3",
		"componentType":5126,
		"count":132,
		"byteOffset":12,
		"min":[-0.006500000134110451,
		-0.0016250000335276127,
		-1.0],
		"max":[0.0,
		0.0002500000118743628,
		-0.9999688267707825]
	},
	{
		"bufferView":3,
		"type":"VEC2",
		"componentType":5126,
		"count":132,
		"byteOffset":24,
		"min":[0.30496740341186526,
		0.07931549847126007],
		"max":[0.9797220826148987,
		0.3817155957221985]
	},
	{
		"bufferView":4,
		"type":"SCALAR",
		"componentType":5123,
		"count":1344,
		"byteOffset":0,
		"min":[0],
		"max":[285]
	},
	{
		"bufferView":5,
		"type":"VEC3",
		"componentType":5126,
		"count":286,
		"byteOffset":0,
		"min":[-86.46617889404297,
		-44.415870666503909,
		-0.5135625600814819],
		"max":[0.11274468153715134,
		42.04383087158203,
		0.7108374834060669]
	},
	{
		"bufferView":5,
		"type":"VEC3",
		"componentType":5126,
		"count":286,
		"byteOffset":12,
		"min":[-0.00021875000675208867,
		-0.003375000087544322,
		0.9998750686645508],
		"max":[0.01328125037252903,
		0.0002500000118743628,
		1.0]
	},
	{
		"bufferView":5,
		"type":"VEC2",
		"componentType":5126,
		"count":286,
		"byteOffset":24,
		"min":[0.002813891042023897,
		0.08154240250587464],
		"max":[0.984104573726654,
		0.9798307418823242]
	},
	{
		"bufferView":6,
		"type":"SCALAR",
		"componentType":5123,
		"count":840,
		"byteOffset":0,
		"min":[0],
		"max":[204]
	},
	{
		"bufferView":7,
		"type":"VEC3",
		"componentType":5126,
		"count":205,
		"byteOffset":0,
		"min":[-43.0576057434082,
		-31.243776321411134,
		3.7183635234832765],
		"max":[43.14239501953125,
		42.49083709716797,
		24.794363021850587]
	},
	{
		"bufferView":7,
		"type":"VEC3",
		"componentType":5126,
		"count":205,
		"byteOffset":12,
		"min":[-0.0001875000016298145,
		-0.37331250309944155,
		-0.03550000116229057],
		"max":[0.0001875000016298145,
		0.9999688267707825,
		1.0]
	},
	{
		"bufferView":7,
		"type":"VEC2",
		"componentType":5126,
		"count":205,
		"byteOffset":24,
		"min":[0.0032297989819198848,
		0.37600457668304446],
		"max":[0.6860784888267517,
		0.6912356615066528]
	},
	{
		"bufferView":8,
		"type":"SCALAR",
		"componentType":5126,
		"count":91,
		"byteOffset":0,
		"min":[0.0],
		"max":[3.0]
	},
	{
		"bufferView":8,
		"type":"VEC4",
		"componentType":5126,
		"count":91,
		"byteOffset":364,
		"min":[-4.3268186642480926e-17,
		-0.9999984502792358,
		0.001762106316164136,
		-6.123224336758489e-17],
		"max":[2.7380465751448368e-17,
		-0.4472513496875763,
		0.8944082856178284,
		-3.9276884676957408e-18]
	},
	{
		"bufferView":9,
		"type":"SCALAR",
		"componentType":5126,
		"count":91,
		"byteOffset":0,
		"min":[0.0],
		"max":[3.0]
	},
	{
		"bufferView":9,
		"type":"VEC4",
		"componentType":5126,
		"count":91,
		"byteOffset":364,
		"min":[-1.133909109855041e-16,
		-0.7090944051742554,
		-0.7051135301589966,
		-1.7191252319042212e-16],
		"max":[1.9339563454317573e-16,
		0.6967403888702393,
		0.9318424463272095,
		1.1403108260517114e-16]
	}],
	"bufferViews":[{
		"buffer":0,
		"byteOffset":0,
		"byteLength":3060,
		"target":34963
	},
	{
		"buffer":0,
		"byteOffset":3060,
		"byteLength":9920,
		"target":34962,
		"byteStride":32
	},
	{
		"buffer":1,
		"byteOffset":0,
		"byteLength":1224,
		"target":34963
	},
	{
		"buffer":1,
		"byteOffset":1224,
		"byteLength":4224,
		"target":34962,
		"byteStride":32
	},
	{
		"buffer":2,
		"byteOffset":0,
		"byteLength":2688,
		"target":34963
	},
	{
		"buffer":2,
		"byteOffset":2688,
		"byteLength":9152,
		"target":34962,
		"byteStride":32
	},
	{
		"buffer":3,
		"byteOffset":0,
		"byteLength":1680,
		"target":34963
	},
	{
		"buffer":3,
		"byteOffset":1680,
		"byteLength":6560,
		"target":34962,
		"byteStride":32
	},
	{
		"buffer":4,
		"byteOffset":0,
		"byteLength":1820
	},
	{
		"buffer":5,
		"byteOffset":0,
		"byteLength":1820
	}],
	"buffers":[{
		"uri":"data:application/octet-stream;base64,",
		"byteLength":12980
	},
	{
		"uri":"data:application/octet-stream;base64,",
		"byteLength":5448
	},
	{
		"uri":"data:application/octet-stream;base64,",
		"byteLength":11840
	},
	{
		"uri":"data:application/octet-stream;base64,",
		"byteLength":8240
	},
	{
		"uri":"data:application/octet-stream;base64,",
		"byteLength":1820
	},
	{
		"uri":"data:application/octet-stream;base64,",
		"byteLength":1820
	}],
	"materials":[{
		"pbrMetallicRoughness":{
			"baseColorFactor":[1.0,
			1.0,
			1.0,
			1.0],
			"metallicFactor":0.0,
			"roughnessFactor":0.5
		},
		"emissiveFactor":[0.0,
		0.0,
		0.0],
		"alphaMode":"OPAQUE",
		"name":"default",
		"doubleSided":false
	}],
	"animations":[{
		"samplers":[{
			"input":16,
			"interpolation":"LINEAR",
			"output":17
		},
		{
			"input":18,
			"interpolation":"LINEAR",
			"output":19
		}],
		"channels":[{
			"sampler":0,
			"target":{
				"node":10,
				"path":"rotation"
			}
		},
		{
			"sampler":1,
			"target":{
				"node":11,
				"path":"rotation"
			}
		}]
	}]
}