{
	"nodes":[{
		"name":"TopFlap",
		"translation":[0.0,
		0.0,
		0.0],
		"rotation":[0.0,
		0.0,
		0.0,
		-1.0],
		"scale":[1.0,
		1.0,
		1.0],
		"children":[1,
		3]
	},
	{
		"name":"TopFlap-default",
		"translation":[0.0,
		0.0,
		0.0],
		"rotation":[0.0,
		0.0,
		0.0,
		-1.0],
		"scale":[1.0,
		1.0,
		1.0],
		"children":[2]
	},
	{
		"name":"TopFlap-default",
		"mesh":0
	},
	{
		"name":"Joint.1",
		"translation":[0.0,
		42.31532669067383,
		4.03329610824585],
		"rotation":[-1.0789789146581442e-19,
		-0.9999984502792358,
		0.001762106316164136,
		-6.123224336758489e-17],
		"scale":[1.0,
		1.0,
		1.0],
		"children":[4]
	},
	{
		"name":"Joint.2",
		"translation":[-1.5662004123553817e-20,
		4.661548924644876e-14,
		-20.594074249267579],
		"rotation":[-1.133909109855041e-16,
		-0.7090944051742554,
		-0.7051135301589966,
		1.1403108260517114e-16],
		"scale":[1.0,
		1.0,
		1.0],
		"children":[5]
	},
	{
		"name":"Joint.3",
		"translation":[3.114191875339506e-23,
		3.552713678800501e-15,
		-68.87873077392578],
		"rotation":[-0.08709758520126343,
		-1.1586846167670762e-18,
		1.0130360762254168e-19,
		-0.9961997866630554],
		"scale":[1.0,
		1.0,
		1.0],
		"children":[6]
	},
	{
		"name":"Joint.4",
		"translation":[5.525277705654042e-22,
		-7.105427357601002e-15,
		-4.659284591674805],
		"rotation":[-8.321251673826247e-17,
		-4.479370290665327e-17,
		3.727396710199485e-33,
		-1.0],
		"scale":[1.0,
		1.0,
		1.0]
	}],
	"asset":{
		"version":"2.0",
		"generator":"Created using the official Cinema 4D glTF Exporter 1.000x284978"
	},
	"scenes":[{
		"nodes":[0]
	}],
	"meshes":[{
		"name":"TopFlap-default",
		"primitives":[{
			"attributes":{
				"POSITION":5,
				"NORMAL":6,
				"TEXCOORD_0":7
			},
			"indices":4,
			"material":0
		}]
	}],
	"accessors":[{
		"bufferView":0,
		"type":"SCALAR",
		"componentType":5126,
		"count":91,
		"byteOffset":0,
		"min":[0.0],
		"max":[3.0]
	},
	{
		"bufferView":0,
		"type":"VEC3",
		"componentType":5126,
		"count":91,
		"byteOffset":364,
		"min":[0.0,
		0.0,
		0.0],
		"max":[0.0,
		50.476253509521487,
		0.0]
	},
	{
		"bufferView":1,
		"type":"SCALAR",
		"componentType":5126,
		"count":91,
		"byteOffset":0,
		"min":[0.0],
		"max":[3.0]
	},
	{
		"bufferView":1,
		"type":"VEC3",
		"componentType":5126,
		"count":91,
		"byteOffset":364,
		"min":[0.0,
		0.0,
		0.0],
		"max":[0.0,
		50.476253509521487,
		0.0]
	},
	{
		"bufferView":2,
		"type":"SCALAR",
		"componentType":5123,
		"count":840,
		"byteOffset":0,
		"min":[0],
		"max":[204]
	},
	{
		"bufferView":3,
		"type":"VEC3",
		"componentType":5126,
		"count":205,
		"byteOffset":0,
		"min":[-43.0576057434082,
		-31.243776321411134,
		3.7183635234832765],
		"max":[43.14239501953125,
		42.49083709716797,
		24.794363021850587]
	},
	{
		"bufferView":3,
		"type":"VEC3",
		"componentType":5126,
		"count":205,
		"byteOffset":12,
		"min":[-0.0001875000016298145,
		-0.37331250309944155,
		-0.03550000116229057],
		"max":[0.0001875000016298145,
		0.9999688267707825,
		1.0]
	},
	{
		"bufferView":3,
		"type":"VEC2",
		"componentType":5126,
		"count":205,
		"byteOffset":24,
		"min":[0.0032297989819198848,
		0.37600457668304446],
		"max":[0.6860784888267517,
		0.6912356615066528]
	},
	{
		"bufferView":4,
		"type":"SCALAR",
		"componentType":5126,
		"count":91,
		"byteOffset":0,
		"min":[0.0],
		"max":[3.0]
	},
	{
		"bufferView":4,
		"type":"VEC3",
		"componentType":5126,
		"count":91,
		"byteOffset":364,
		"min":[0.0,
		0.0,
		0.0],
		"max":[0.0,
		50.476253509521487,
		0.0]
	},
	{
		"bufferView":5,
		"type":"SCALAR",
		"componentType":5126,
		"count":91,
		"byteOffset":0,
		"min":[0.0],
		"max":[3.0]
	},
	{
		"bufferView":5,
		"type":"VEC4",
		"componentType":5126,
		"count":91,
		"byteOffset":364,
		"min":[-4.3268186642480926e-17,
		-0.9999984502792358,
		0.001762106316164136,
		-6.123224336758489e-17],
		"max":[2.7380465751448368e-17,
		-0.4472513496875763,
		0.8944082856178284,
		-3.9276884676957408e-18]
	},
	{
		"bufferView":6,
		"type":"SCALAR",
		"componentType":5126,
		"count":91,
		"byteOffset":0,
		"min":[0.0],
		"max":[3.0]
	},
	{
		"bufferView":6,
		"type":"VEC4",
		"componentType":5126,
		"count":91,
		"byteOffset":364,
		"min":[-1.133909109855041e-16,
		-0.7090944051742554,
		-0.7051135301589966,
		-1.7191252319042212e-16],
		"max":[1.9339563454317573e-16,
		0.6967403888702393,
		0.9318424463272095,
		1.1403108260517114e-16]
	}],
	"bufferViews":[{
		"buffer":0,
		"byteOffset":0,
		"byteLength":1456
	},
	{
		"buffer":1,
		"byteOffset":0,
		"byteLength":1456
	},
	{
		"buffer":2,
		"byteOffset":0,
		"byteLength":1680,
		"target":34963
	},
	{
		"buffer":2,
		"byteOffset":1680,
		"byteLength":6560,
		"target":34962,
		"byteStride":32
	},
	{
		"buffer":3,
		"byteOffset":0,
		"byteLength":1456
	},
	{
		"buffer":4,
		"byteOffset":0,
		"byteLength":1820
	},
	{
		"buffer":5,
		"byteOffset":0,
		"byteLength":1820
	}],
	"buffers":[{
		"uri":"data:application/octet-stream;base64,",
		"byteLength":1456
	},
	{
		"uri":"data:application/octet-stream;base64,",
		"byteLength":1456
	},
	{
		"uri":"data:application/octet-stream;base64,",
		"byteLength":8240
	},
	{
		"uri":"data:application/octet-stream;base64,",
		"byteLength":1456
	},
	{
		"uri":"data:application/octet-stream;base64,",
		"byteLength":1820
	},
	{
		"uri":"data:application/octet-stream;base64,",
		"byteLength":1820
	}],
	"materials":[{
		"pbrMetallicRoughness":{
			"baseColorFactor":[1.0,
			1.0,
			1.0,
			1.0],
			"metallicFactor":0.0,
			"roughnessFactor":0.5
		},
		"emissiveFactor":[0.0,
		0.0,
		0.0],
		"alphaMode":"OPAQUE",
		"name":"default",
		"doubleSided":false
	}],
	"animations":[{
		"samplers":[{
			"input":0,
			"interpolation":"LINEAR",
			"output":1
		},
		{
			"input":2,
			"interpolation":"LINEAR",
			"output":3
		},
		{
			"input":8,
			"interpolation":"LINEAR",
			"output":9
		},
		{
			"input":10,
			"interpolation":"LINEAR",
			"output":11
		},
		{
			"input":12,
			"interpolation":"LINEAR",
			"output":13
		}],
		"channels":[{
			"sampler":0,
			"target":{
				"node":0,
				"path":"translation"
			}
		},
		{
			"sampler":1,
			"target":{
				"node":1,
				"path":"translation"
			}
		},
		{
			"sampler":2,
			"target":{
				"node":2,
				"path":"translation"
			}
		},
		{
			"sampler":3,
			"target":{
				"node":3,
				"path":"rotation"
			}
		},
		{
			"sampler":4,
			"target":{
				"node":4,
				"path":"rotation"
			}
		}]
	}]
}